<svg width="25" height="24" viewBox="0 0 25 24" fill="none" xmlns="http://www.w3.org/2000/svg"><path d="M10.0138 16.2668V6.41979C10.0138 5.08779 8.93481 4.00879 7.60281 4.00879V4.00879C6.50381 4.00879 5.54481 4.75179 5.26881 5.81479L2.77881 15.4248" stroke="#101828" stroke-width="1.5" stroke-linecap="round" stroke-linejoin="round"></path><path d="M8.9389 13.7279C10.3737 15.1627 10.3737 17.489 8.9389 18.9238C7.50411 20.3586 5.17787 20.3586 3.74308 18.9238C2.30829 17.489 2.30829 15.1627 3.74308 13.7279C5.17787 12.2932 7.50411 12.2932 8.9389 13.7279" stroke="#101828" stroke-width="1.5"></path><path d="M15.3203 16.2668V6.41979C15.3203 5.08779 16.3993 4.00879 17.7313 4.00879V4.00879C18.8303 4.00879 19.7893 4.75179 20.0653 5.81479L22.5553 15.4248" stroke="#101828" stroke-width="1.5" stroke-linecap="round" stroke-linejoin="round"></path><path d="M15.3202 9.9998C15.3202 8.5318 14.1322 7.3418 12.6672 7.3418C11.2022 7.3418 10.0142 8.5318 10.0142 9.9998" stroke="#101828" stroke-width="1.5" stroke-linecap="round" stroke-linejoin="round"></path><path d="M10.0142 15.9998C10.0142 14.5318 11.2022 13.3418 12.6672 13.3418C14.1322 13.3418 15.3202 14.5318 15.3202 15.9998" stroke="#101828" stroke-width="1.5" stroke-linecap="round" stroke-linejoin="round"></path><path d="M21.5908 13.7279C23.0256 15.1627 23.0256 17.489 21.5908 18.9238C20.156 20.3586 17.8297 20.3586 16.3949 18.9238C14.9602 17.489 14.9602 15.1627 16.3949 13.7279C17.8297 12.2932 20.156 12.2932 21.5908 13.7279" stroke="#101828" stroke-width="1.5"></path></svg>